<svg width="25" height="25" viewBox="0 0 25 25" fill="none" xmlns="http://www.w3.org/2000/svg">
<path d="M8.75339 7.13574H3.94138C3.6286 7.13574 3.375 7.3893 3.375 7.70212V10.5731C3.375 10.8859 3.6286 11.1395 3.94138 11.1395C4.69158 11.1395 5.30192 11.7498 5.30192 12.5C5.30192 13.2503 4.69158 13.8606 3.94138 13.8606C3.6286 13.8606 3.375 14.1141 3.375 14.4269V17.2979C3.375 17.6108 3.6286 17.8643 3.94138 17.8643H8.75339V7.13574Z" fill="#0FB8D3"/>
<path d="M20.8087 11.1395C21.1214 11.1395 21.375 10.8859 21.375 10.5731V7.70212C21.375 7.3893 21.1214 7.13574 20.8087 7.13574H9.88617V17.8643H20.8087C21.1214 17.8643 21.375 17.6108 21.375 17.298V14.427C21.375 14.1142 21.1214 13.8606 20.8087 13.8606C20.0584 13.8606 19.4481 13.2503 19.4481 12.5C19.4481 11.7498 20.0584 11.1395 20.8087 11.1395Z" fill="#0FB8D3"/>
</svg>
