<svg width="25" height="25" viewBox="0 0 25 25" fill="none" xmlns="http://www.w3.org/2000/svg">
<path d="M12.625 3.5C7.62278 3.5 3.625 7.55561 3.625 12.5C3.625 17.493 7.68068 21.5002 12.6229 21.5C17.5848 21.4999 21.6249 17.4805 21.6249 12.5C21.6249 7.56137 17.6305 3.5 12.625 3.5ZM10.6202 13.4101L9.95714 16.2834C9.791 17.0036 8.78985 17.1167 8.47922 16.4289L6.98761 13.1195L7.98362 10.1961C8.06919 9.94503 7.95497 9.66955 7.71689 9.55265L5.71742 8.57088C6.4943 7.20401 7.64939 6.10672 9.04783 5.40311V6.71292C9.04783 6.962 9.22213 7.17715 9.46584 7.2288L12.166 7.80117C12.5331 7.8788 12.8202 8.15267 12.9153 8.51576L13.1705 9.49C13.2487 9.78922 13.1805 10.1122 12.988 10.3539L10.7215 13.2001C10.6725 13.2616 10.6378 13.3334 10.6202 13.4101ZM12.0407 20.4242L12.3433 19.7855C12.3996 19.6665 12.4621 19.6104 12.5728 19.5434C12.6897 19.4735 12.8669 19.3921 13.1584 19.2458C13.419 19.1153 13.6988 19.198 13.8513 19.3984C13.8514 19.3985 13.8514 19.3985 13.8515 19.3986L14.4822 20.2268C13.6862 20.4172 12.8603 20.4839 12.0407 20.4242ZM17.7456 18.5748L17.0546 18.1266L16.7447 15.2544C16.7141 14.9718 16.7875 14.6878 16.9511 14.4548L18.5074 12.2396C18.5698 12.1508 18.6033 12.0449 18.6033 11.9364V9.90175L19.6134 8.71639C20.2412 9.87299 20.5703 11.1676 20.5703 12.5C20.5702 14.9251 19.4851 17.1052 17.7456 18.5748Z" fill="#0FB8D3"/>
</svg>
