<svg width="25" height="25" viewBox="0 0 25 25" fill="none" xmlns="http://www.w3.org/2000/svg">
<path d="M12.125 5.02832C9.95255 5.02832 8.18512 6.79575 8.18512 8.96821C8.18512 11.1407 9.95255 12.9081 12.125 12.9081C14.2975 12.9081 16.0649 11.1407 16.0649 8.96821C16.0649 6.79575 14.2975 5.02832 12.125 5.02832Z" fill="#0FB8D3"/>
<path d="M17.027 15.4816C15.9483 14.3864 14.5184 13.7832 13.0005 13.7832H11.2495C9.73166 13.7832 8.30169 14.3864 7.22303 15.4816C6.14966 16.5714 5.55853 18.0101 5.55853 19.5325C5.55853 19.7743 5.75453 19.9703 5.9963 19.9703H18.2537C18.4955 19.9703 18.6915 19.7743 18.6915 19.5325C18.6915 18.0101 18.1004 16.5714 17.027 15.4816Z" fill="#0FB8D3"/>
</svg>
