<svg width="25" height="25" viewBox="0 0 25 25" fill="none" xmlns="http://www.w3.org/2000/svg">
<path fill-rule="evenodd" clip-rule="evenodd" d="M16.9197 14.6305C16.3147 15.6111 15.4863 16.4396 14.5055 17.0447L17.9608 20.5C18.6274 21.1666 19.7083 21.1666 20.3749 20.5C20.3749 20.4999 20.375 20.4999 20.375 20.4999C21.0417 19.8333 21.0417 18.7524 20.375 18.0858L16.9197 14.6305ZM10.6449 4C6.90852 4 3.87501 7.03351 3.87501 10.7699C3.87501 14.5064 6.90852 17.5398 10.6449 17.5398C14.3814 17.5398 17.4148 14.5064 17.4148 10.7699C17.4148 7.03351 14.3814 4 10.6449 4ZM10.6449 6.32834C13.0963 6.32834 15.0865 8.31854 15.0865 10.7699C15.0865 13.2213 13.0963 15.2115 10.6449 15.2115C8.19355 15.2115 6.20335 13.2213 6.20335 10.7699C6.20335 8.31854 8.19355 6.32834 10.6449 6.32834Z" fill="#0FB8D3"/>
</svg>
