<svg width="16" height="16" viewBox="0 0 16 16" fill="none" xmlns="http://www.w3.org/2000/svg">
<path d="M12.6915 2.39258H11.57V3.51407C11.57 3.73837 11.3831 3.88791 11.1962 3.88791C11.0093 3.88791 10.8224 3.73837 10.8224 3.51407V2.39258H4.84106V3.51407C4.84106 3.73837 4.65414 3.88791 4.46723 3.88791C4.28031 3.88791 4.0934 3.73837 4.0934 3.51407V2.39258H2.9719C2.41115 2.39258 1.99994 2.87856 1.99994 3.51407V4.85987H13.9626V3.51407C13.9626 2.87856 13.2897 2.39258 12.6915 2.39258ZM1.99994 5.64491V12.486C1.99994 13.1589 2.41115 13.6075 3.00928 13.6075H12.7289C13.327 13.6075 13.9999 13.1216 13.9999 12.486V5.64491H1.99994ZM5.32704 11.9253H4.42985C4.28031 11.9253 4.13078 11.8131 4.13078 11.6262V10.6916C4.13078 10.5421 4.24293 10.3926 4.42985 10.3926H5.36442C5.51396 10.3926 5.66349 10.5047 5.66349 10.6916V11.6262C5.62611 11.8131 5.51396 11.9253 5.32704 11.9253ZM5.32704 8.5608H4.42985C4.28031 8.5608 4.13078 8.44865 4.13078 8.26174V7.32716C4.13078 7.17763 4.24293 7.02809 4.42985 7.02809H5.36442C5.51396 7.02809 5.66349 7.14024 5.66349 7.32716V8.26174C5.62611 8.44865 5.51396 8.5608 5.32704 8.5608ZM8.3177 11.9253H7.38312C7.23358 11.9253 7.08405 11.8131 7.08405 11.6262V10.6916C7.08405 10.5421 7.1962 10.3926 7.38312 10.3926H8.3177C8.46723 10.3926 8.61676 10.5047 8.61676 10.6916V11.6262C8.61676 11.8131 8.50461 11.9253 8.3177 11.9253ZM8.3177 8.5608H7.38312C7.23358 8.5608 7.08405 8.44865 7.08405 8.26174V7.32716C7.08405 7.17763 7.1962 7.02809 7.38312 7.02809H8.3177C8.46723 7.02809 8.61676 7.14024 8.61676 7.32716V8.26174C8.61676 8.44865 8.50461 8.5608 8.3177 8.5608ZM11.3084 11.9253H10.3738C10.2242 11.9253 10.0747 11.8131 10.0747 11.6262V10.6916C10.0747 10.5421 10.1869 10.3926 10.3738 10.3926H11.3084C11.4579 10.3926 11.6074 10.5047 11.6074 10.6916V11.6262C11.6074 11.8131 11.4953 11.9253 11.3084 11.9253ZM11.3084 8.5608H10.3738C10.2242 8.5608 10.0747 8.44865 10.0747 8.26174V7.32716C10.0747 7.17763 10.1869 7.02809 10.3738 7.02809H11.3084C11.4579 7.02809 11.6074 7.14024 11.6074 7.32716V8.26174C11.6074 8.44865 11.4953 8.5608 11.3084 8.5608Z" fill="#303030"/>
</svg>
