<svg width="18" height="15" viewBox="0 0 18 15" fill="none" xmlns="http://www.w3.org/2000/svg">
<path d="M7.73168 6.69341L3.97335 0.800075L5.58251 0.368408L11.375 5.71841L15.76 4.54341C16.0803 4.45766 16.4215 4.50263 16.7085 4.66845C16.9956 4.83426 17.2051 5.10733 17.2908 5.42758C17.3766 5.74782 17.3316 6.08902 17.1658 6.37611C17 6.6632 16.7269 6.87266 16.4067 6.95841L3.93001 10.3001L3.28335 7.88508L3.48418 7.83091L5.54001 9.86841L3.35168 10.4551C3.17223 10.5032 2.98186 10.49 2.81079 10.4175C2.63972 10.345 2.49778 10.2175 2.40751 10.0551L0.22168 6.11674L1.42918 5.79341L3.48418 7.83091L7.73168 6.69257V6.69341ZM2.33335 12.8334H15.6667V14.5001H2.33335V12.8334Z" fill="#303030"/>
</svg>
