<svg width="20" height="20" viewBox="0 0 20 20" fill="none" xmlns="http://www.w3.org/2000/svg">
<g clip-path="url(#clip0_777_2513)">
<path d="M8.54499 8.72499L8.23665 1.73999L9.84749 2.17166L12.1892 9.70082L16.5733 10.8758C16.7319 10.9183 16.8805 10.9916 17.0108 11.0915C17.1411 11.1914 17.2503 11.316 17.3325 11.4581C17.4146 11.6003 17.4679 11.7572 17.4893 11.92C17.5108 12.0827 17.4999 12.2481 17.4575 12.4067C17.415 12.5652 17.3417 12.7139 17.2418 12.8441C17.1419 12.9744 17.0173 13.0837 16.8752 13.1658C16.733 13.2479 16.5761 13.3012 16.4134 13.3226C16.2506 13.3441 16.0852 13.3333 15.9267 13.2908L3.44999 9.94749L4.09665 7.53249L4.29832 7.58666L5.05999 10.3783L2.87082 9.79249C2.69143 9.74422 2.53332 9.63739 2.42159 9.48897C2.30986 9.34056 2.25093 9.15906 2.25415 8.97332L2.32915 4.47082L3.53665 4.79416L4.29832 7.58666L8.54499 8.72499ZM3.33332 15.8333H16.6667V17.5H3.33332V15.8333Z" fill="#303030"/>
</g>
<defs>
<clipPath id="clip0_777_2513">
<rect width="20" height="20" fill="white"/>
</clipPath>
</defs>
</svg>
