<svg width="16" height="16" viewBox="0 0 16 16" fill="none" xmlns="http://www.w3.org/2000/svg">
<path d="M2.66656 4.19289C2.66656 3.36688 3.33618 2.69727 4.16219 2.69727C4.8468 2.69727 5.42397 3.15724 5.60152 3.78499H12.5921C12.8174 3.78499 13 3.96762 13 4.19289C13 4.41817 12.8174 4.60079 12.5921 4.60079H5.60152C5.42397 5.22854 4.8468 5.68852 4.16219 5.68852C3.33618 5.68852 2.66656 5.0189 2.66656 4.19289Z" fill="#303030"/>
<path d="M5.60152 12.2148C5.42397 12.8426 4.8468 13.3025 4.16219 13.3025C3.33618 13.3025 2.66656 12.6329 2.66656 11.8069C2.66656 10.9809 3.33618 10.3113 4.16219 10.3113C4.8468 10.3113 5.42397 10.7712 5.60152 11.399H12.5921C12.8174 11.399 13 11.5816 13 11.8069C13 12.0322 12.8174 12.2148 12.5921 12.2148H5.60152Z" fill="#303030"/>
<path d="M2.93854 8.00002C2.93854 7.77475 3.12116 7.59212 3.34644 7.59212H7.34574C7.52331 6.96434 8.10046 6.50439 8.78508 6.50439C9.46969 6.50439 10.0468 6.96434 10.2244 7.59212H12.5921C12.8174 7.59212 13 7.77475 13 8.00002C13 8.22529 12.8174 8.40792 12.5921 8.40792H10.2244C10.0468 9.0357 9.46969 9.49565 8.78508 9.49565C8.10046 9.49565 7.52331 9.0357 7.34574 8.40792H3.34644C3.12116 8.40792 2.93854 8.22529 2.93854 8.00002Z" fill="#303030"/>
</svg>
