<svg width="16" height="16" viewBox="0 0 16 16" fill="none" xmlns="http://www.w3.org/2000/svg">
<path d="M7.99987 2.53857C6.41184 2.53857 5.11987 3.83054 5.11987 5.41857C5.11987 7.00661 6.41184 8.29857 7.99987 8.29857C9.5879 8.29857 10.8799 7.00661 10.8799 5.41857C10.8799 3.83054 9.5879 2.53857 7.99987 2.53857Z" fill="#303030"/>
<path d="M11.5833 10.1802C10.7948 9.37962 9.74954 8.93872 8.64001 8.93872H7.36001C6.25051 8.93872 5.20522 9.37962 4.41674 10.1802C3.63212 10.9769 3.20001 12.0285 3.20001 13.1414C3.20001 13.3181 3.34329 13.4614 3.52001 13.4614H12.48C12.6567 13.4614 12.8 13.3181 12.8 13.1414C12.8 12.0285 12.3679 10.9769 11.5833 10.1802Z" fill="#303030"/>
</svg>
