<svg width="25" height="25" viewBox="0 0 25 25" fill="none" xmlns="http://www.w3.org/2000/svg">
<path d="M12.125 5.02869C9.95255 5.02869 8.18512 6.79612 8.18512 8.96857C8.18512 11.141 9.95255 12.9085 12.125 12.9085C14.2975 12.9085 16.0649 11.141 16.0649 8.96857C16.0649 6.79612 14.2975 5.02869 12.125 5.02869Z" fill="#969696"/>
<path d="M17.027 15.4824C15.9483 14.3871 14.5184 13.784 13.0005 13.784H11.2495C9.73166 13.784 8.30169 14.3871 7.22303 15.4824C6.14966 16.5722 5.55853 18.0109 5.55853 19.5333C5.55853 19.7751 5.75453 19.9711 5.9963 19.9711H18.2537C18.4955 19.9711 18.6915 19.7751 18.6915 19.5333C18.6915 18.0109 18.1004 16.5722 17.027 15.4824Z" fill="#969696"/>
</svg>
