<svg width="21" height="20" viewBox="0 0 21 20" fill="none" xmlns="http://www.w3.org/2000/svg">
<path d="M3 14.2363V15.1778C3 15.4205 3.19676 15.6172 3.43945 15.6172C3.68215 15.6172 3.87891 15.4205 3.87891 15.1778V14.6758H17.1211V15.1778C17.1211 15.4205 17.3179 15.6172 17.5605 15.6172C17.8032 15.6172 18 15.4205 18 15.1778V14.2363V12.793H3V14.2363Z" fill="#969696"/>
<path d="M16.3838 9.08984H4.61619C3.72504 9.08984 3 9.81488 3 10.7061V11.9141H18V10.7061C18 9.81488 17.275 9.08984 16.3838 9.08984Z" fill="#969696"/>
<path d="M8.85259 7.14453C8.446 7.14453 8.11524 7.47526 8.11524 7.88182V8.21091H12.8848V7.88182C12.8848 7.47526 12.554 7.14453 12.1475 7.14453H8.85259Z" fill="#969696"/>
<path d="M7.23634 7.88183C7.23634 6.99064 7.96137 6.26563 8.85258 6.26563H12.1475C13.0387 6.26563 13.7637 6.99064 13.7637 7.88183V8.21092H16.1172V5.999C16.1172 5.10782 15.3922 4.38281 14.501 4.38281H6.49905C5.60787 4.38281 4.88286 5.10782 4.88286 5.999V8.21092H7.23634V7.88183Z" fill="#969696"/>
</svg>
