<svg width="25" height="24" viewBox="0 0 25 24" fill="none" xmlns="http://www.w3.org/2000/svg">
<path d="M17.8694 9.40581L16.8174 5.89917C16.5775 5.09946 15.8556 4.5625 15.0211 4.5625H7.97885C7.14435 4.5625 6.42245 5.09946 6.18258 5.89917L5.13058 9.40581C4.46631 9.69449 3.99997 10.3556 3.99997 11.125V14.875C3.99997 15.3927 4.41974 15.8125 4.93747 15.8125H4.93753L4.93747 16.7499C4.93747 17.2677 5.35718 17.6875 5.87497 17.6875H6.81253C7.33026 17.6875 7.75003 17.2677 7.75003 16.75L7.74962 15.8125H15.25L15.2499 16.7499C15.2499 17.2677 15.6696 17.6875 16.1874 17.6875H17.125C17.6428 17.6875 18.0625 17.2677 18.0625 16.75V15.8126L18.0621 15.8125H18.0625C18.5802 15.8125 19 15.3927 19 14.875V11.125C19 10.3556 18.5336 9.69448 17.8694 9.40581L17.8694 9.40581ZM7.97882 6.4375H15.0211L15.8648 9.25H7.13505L7.97882 6.4375H7.97882ZM7.74994 13.4687C7.23215 13.4687 6.81244 13.049 6.81244 12.5312C6.81244 12.0135 7.23215 11.5937 7.74994 11.5937C8.26773 11.5937 8.68744 12.0135 8.68744 12.5312C8.68744 13.049 8.26773 13.4687 7.74994 13.4687ZM15.2499 13.4687C14.7322 13.4687 14.3124 13.049 14.3124 12.5312C14.3124 12.0135 14.7322 11.5937 15.2499 11.5937C15.7677 11.5937 16.1874 12.0135 16.1874 12.5312C16.1874 13.049 15.7677 13.4687 15.2499 13.4687Z" fill="#969696"/>
</svg>
