<svg width="21" height="20" viewBox="0 0 21 20" fill="none" xmlns="http://www.w3.org/2000/svg">
<path d="M6.46501 3.36724C6.31182 3.32385 6.14702 3.36665 6.03444 3.4793L4.68752 4.82621C4.58859 4.92515 4.54268 5.06527 4.56389 5.20361C4.5851 5.34192 4.67091 5.46183 4.79498 5.52655L8.98166 7.71094L11.8101 4.88246L6.46501 3.36724Z" fill="#0FB8D3"/>
<path d="M14.9735 15.7049C15.0382 15.8289 15.1582 15.9148 15.2964 15.936C15.3187 15.9394 15.341 15.9411 15.3631 15.9411C15.4787 15.9411 15.5908 15.8954 15.6738 15.8123L17.0207 14.4654C17.1334 14.3528 17.1762 14.1881 17.1328 14.0349L15.6176 8.6897L12.7891 11.5182L14.9735 15.7049Z" fill="#0FB8D3"/>
<path d="M16.66 2.51077C15.7397 2.63449 14.8713 3.06421 14.2146 3.72084L7.69894 10.2365L4.71264 9.40967C4.56018 9.36743 4.39661 9.41049 4.28464 9.52246L3.12871 10.6783C3.03103 10.776 2.98498 10.9139 3.00435 11.0506C3.02368 11.1874 3.10624 11.3071 3.22715 11.3738L7.0288 13.4711L9.12609 17.2728C9.1928 17.3937 9.31251 17.4763 9.44927 17.4956C9.46983 17.4985 9.4904 17.4999 9.51091 17.4999C9.62657 17.4999 9.73863 17.4542 9.8216 17.3712L10.9775 16.2153C11.0894 16.1034 11.1325 15.9399 11.0903 15.7873L10.2634 12.801L16.7791 6.2853C17.4357 5.6287 17.8655 4.76023 17.9892 3.83996C18.0387 3.47149 17.9164 3.10936 17.6535 2.84648C17.3905 2.58357 17.0284 2.46134 16.66 2.51077Z" fill="#0FB8D3"/>
</svg>
